<svg width="16" height="17" viewBox="0 0 16 17" fill="none" xmlns="http://www.w3.org/2000/svg">
<path d="M7 3.41418V10C7 10.5522 7.44775 11 8 11C8.55225 11 9 10.5522 9 10V3.41418L10.293 4.70715C10.6833 5.09766 11.3167 5.09766 11.707 4.70715C12.0977 4.31653 12.0977 3.68347 11.707 3.29285L8.70703 0.292847C8.52612 0.111938 8.27612 0 8 0C7.7583 0 7.53687 0.0856934 7.36401 0.228394C7.33936 0.248779 7.31567 0.270264 7.29297 0.292847L4.29297 3.29285C3.90234 3.68347 3.90234 4.31653 4.29297 4.70715C4.68335 5.09766 5.31665 5.09766 5.70703 4.70715L7 3.41418Z" fill="#4360DF"/>
<path d="M1 7C1.55225 7 2 7.44775 2 8V14C2 14.5522 2.44775 15 3 15H13C13.5522 15 14 14.5522 14 14V8C14 7.44775 14.4478 7 15 7C15.5522 7 16 7.44775 16 8V14C16 15.6569 14.6567 17 13 17H3C1.34326 17 0 15.6569 0 14V8C0 7.44775 0.447754 7 1 7Z" fill="#4360DF"/>
</svg>
